<svg width="136" height="40" viewBox="0 0 136 40" fill="none" xmlns="http://www.w3.org/2000/svg">
<rect width="136" height="40" rx="4" fill="white"/>
<rect x="0.5" y="0.5" width="135" height="39" rx="3.5" stroke="black" stroke-opacity="0.1"/>
<path d="M18.3284 18.28V20.4667H23.6921C23.5279 21.6933 23.1083 22.5911 22.4698 23.2222C21.6853 23.9867 20.4629 24.8222 18.3284 24.8222C15.0262 24.8222 12.4447 22.2267 12.4447 19.0089C12.4447 15.7911 15.0262 13.1956 18.3284 13.1956C20.1072 13.1956 21.4116 13.88 22.3694 14.76L23.9475 13.2222C22.6157 11.96 20.8278 11 18.3284 11C13.8039 11 10 14.5911 10 19C10 23.4089 13.8039 27 18.3284 27C20.7731 27 22.6157 26.2178 24.057 24.76C25.5348 23.32 26 21.2844 26 19.6489C26 19.1422 25.9635 18.6711 25.8814 18.28H18.3284Z" fill="#4285F4"/>
<path d="M33 17C30.247 17 28 19.0998 28 22C28 24.8744 30.247 27 33 27C35.753 27 38 24.883 38 22C38 19.0998 35.753 17 33 17ZM33 25.0293C31.4906 25.0293 30.187 23.7814 30.187 22C30.187 20.2014 31.4906 18.9707 33 18.9707C34.5094 18.9707 35.813 20.2014 35.813 22C35.813 23.7814 34.5094 25.0293 33 25.0293Z" fill="#EA4335"/>
<path d="M57.8 18.0833H57.7182C57.2 17.5167 56.2 17 54.9364 17C52.3 17 50 19.1083 50 21.8417C50 24.5583 52.3 26.6833 54.9364 26.6833C56.2 26.6833 57.2 26.1667 57.7182 25.5833H57.8V26.2583C57.8 28.1083 56.7182 29.1 54.9818 29.1C53.5636 29.1 52.6818 28.1667 52.3182 27.375L50.3 28.1417C50.8818 29.425 52.4182 31 54.9818 31C57.7 31 60 29.5333 60 25.9583V17.25H57.8V18.0833ZM55.1364 24.775C53.5364 24.775 52.3182 23.525 52.3182 21.8417C52.3182 20.1333 53.5364 18.9083 55.1364 18.9083C56.7182 18.9083 57.9545 20.1583 57.9545 21.8583C57.9636 23.55 56.7182 24.775 55.1364 24.775Z" fill="#4285F4"/>
<path d="M44 17C41.247 17 39 19.0998 39 22C39 24.8744 41.247 27 44 27C46.753 27 49 24.883 49 22C49 19.0998 46.753 17 44 17ZM44 25.0293C42.4906 25.0293 41.187 23.7814 41.187 22C41.187 20.2014 42.4906 18.9707 44 18.9707C45.5094 18.9707 46.813 20.2014 46.813 22C46.813 23.7814 45.5094 25.0293 44 25.0293Z" fill="#FBBC05"/>
<path d="M62 11H64V27H62V11Z" fill="#34A853"/>
<path d="M71.3782 25.0293C70.1643 25.0293 69.3053 24.5215 68.7451 23.5146L76 20.7522L75.7572 20.1842C75.3091 19.0654 73.9272 17 71.1167 17C68.3249 17 66 19.0224 66 22C66 24.8055 68.2969 27 71.3782 27C73.8618 27 75.2997 25.5972 75.8973 24.7883L74.0485 23.6523C73.4323 24.4785 72.592 25.0293 71.3782 25.0293ZM71.2101 18.8761C72.1718 18.8761 72.9935 19.3322 73.2642 19.9776L68.3623 21.8451C68.3623 19.7453 69.9776 18.8761 71.2101 18.8761Z" fill="#EA4335"/>
<path d="M88.9659 13.9091V27H87.4318L80.2983 16.7216H80.1705V27H78.5852V13.9091H80.1193L87.2784 24.2131H87.4062V13.9091H88.9659ZM96.0499 27.2045C95.1039 27.2045 94.2878 26.9957 93.6017 26.5781C92.9199 26.1562 92.3936 25.5682 92.0229 24.8139C91.6564 24.0554 91.4732 23.1733 91.4732 22.1676C91.4732 21.1619 91.6564 20.2756 92.0229 19.5085C92.3936 18.7372 92.9093 18.1364 93.5698 17.706C94.2346 17.2713 95.0101 17.054 95.8965 17.054C96.4078 17.054 96.9128 17.1392 97.4114 17.3097C97.91 17.4801 98.3638 17.7571 98.7729 18.1406C99.182 18.5199 99.508 19.0227 99.7509 19.6491C99.9938 20.2756 100.115 21.0469 100.115 21.9631V22.6023H92.5471V21.2983H98.5811C98.5811 20.7443 98.4703 20.25 98.2488 19.8153C98.0314 19.3807 97.7203 19.0376 97.3155 18.7862C96.915 18.5348 96.4419 18.4091 95.8965 18.4091C95.2956 18.4091 94.7757 18.5582 94.3368 18.8565C93.9022 19.1506 93.5676 19.5341 93.3333 20.0071C93.0989 20.4801 92.9817 20.9872 92.9817 21.5284V22.3977C92.9817 23.1392 93.1096 23.7678 93.3652 24.2834C93.6252 24.7947 93.9853 25.1847 94.4455 25.4531C94.9057 25.7173 95.4405 25.8494 96.0499 25.8494C96.4462 25.8494 96.8042 25.794 97.1238 25.6832C97.4476 25.5682 97.7267 25.3977 97.9611 25.1719C98.1955 24.9418 98.3766 24.6562 98.5044 24.3153L99.9618 24.7244C99.8084 25.2188 99.5506 25.6534 99.1884 26.0284C98.8262 26.3991 98.3787 26.6889 97.8461 26.8977C97.3134 27.1023 96.7147 27.2045 96.0499 27.2045ZM104.634 27L101.643 17.1818H103.228L105.35 24.6989H105.453L107.549 17.1818H109.16L111.231 24.6733H111.333L113.455 17.1818H115.041L112.049 27H110.566L108.419 19.4574H108.265L106.117 27H104.634ZM123.99 19.3807L122.634 19.7642C122.549 19.5384 122.423 19.3189 122.257 19.1058C122.095 18.8885 121.874 18.7095 121.593 18.5689C121.311 18.4283 120.951 18.358 120.512 18.358C119.911 18.358 119.411 18.4964 119.01 18.7734C118.614 19.0462 118.416 19.3935 118.416 19.8153C118.416 20.1903 118.552 20.4865 118.825 20.7038C119.097 20.9212 119.524 21.1023 120.103 21.2472L121.561 21.6051C122.438 21.8182 123.093 22.1442 123.523 22.5831C123.953 23.0178 124.169 23.5781 124.169 24.2642C124.169 24.8267 124.007 25.3295 123.683 25.7727C123.363 26.2159 122.916 26.5653 122.34 26.821C121.765 27.0767 121.096 27.2045 120.333 27.2045C119.332 27.2045 118.503 26.9872 117.847 26.5526C117.191 26.1179 116.775 25.483 116.6 24.6477L118.032 24.2898C118.169 24.8182 118.426 25.2145 118.806 25.4787C119.189 25.7429 119.69 25.875 120.308 25.875C121.011 25.875 121.569 25.7259 121.982 25.4276C122.4 25.125 122.609 24.7628 122.609 24.3409C122.609 24 122.49 23.7145 122.251 23.4844C122.012 23.25 121.646 23.0753 121.151 22.9602L119.515 22.5767C118.616 22.3636 117.955 22.0334 117.534 21.5859C117.116 21.1342 116.907 20.5696 116.907 19.892C116.907 19.3381 117.063 18.848 117.374 18.4219C117.689 17.9957 118.117 17.6612 118.659 17.4183C119.204 17.1754 119.822 17.054 120.512 17.054C121.484 17.054 122.247 17.267 122.801 17.6932C123.359 18.1193 123.755 18.6818 123.99 19.3807Z" fill="#BEBEBE"/>
<path d="M88.9659 13.9091H89.3062V13.5688H88.9659V13.9091ZM88.9659 27V27.3403H89.3062V27H88.9659ZM87.4318 27L87.1523 27.194L87.2538 27.3403H87.4318V27ZM80.2983 16.7216L80.5778 16.5276L80.4763 16.3813H80.2983V16.7216ZM80.1705 16.7216V16.3813H79.8302V16.7216H80.1705ZM80.1705 27V27.3403H80.5107V27H80.1705ZM78.5852 27H78.2449V27.3403H78.5852V27ZM78.5852 13.9091V13.5688H78.2449V13.9091H78.5852ZM80.1193 13.9091L80.3988 13.7149L80.2972 13.5688H80.1193V13.9091ZM87.2784 24.2131L86.999 24.4072L87.1005 24.5534H87.2784V24.2131ZM87.4062 24.2131V24.5534H87.7465V24.2131H87.4062ZM87.4062 13.9091V13.5688H87.066V13.9091H87.4062ZM88.6256 13.9091V27H89.3062V13.9091H88.6256ZM88.9659 26.6597H87.4318V27.3403H88.9659V26.6597ZM87.7114 26.806L80.5778 16.5276L80.0187 16.9156L87.1523 27.194L87.7114 26.806ZM80.2983 16.3813H80.1705V17.0619H80.2983V16.3813ZM79.8302 16.7216V27H80.5107V16.7216H79.8302ZM80.1705 26.6597H78.5852V27.3403H80.1705V26.6597ZM78.9255 27V13.9091H78.2449V27H78.9255ZM78.5852 14.2494H80.1193V13.5688H78.5852V14.2494ZM79.8399 14.1033L86.999 24.4072L87.5579 24.0189L80.3988 13.7149L79.8399 14.1033ZM87.2784 24.5534H87.4062V23.8728H87.2784V24.5534ZM87.7465 24.2131V13.9091H87.066V24.2131H87.7465ZM87.4062 14.2494H88.9659V13.5688H87.4062V14.2494ZM93.6017 26.5781L93.4227 26.8675L93.4248 26.8688L93.6017 26.5781ZM92.0229 24.8139L91.7165 24.962L91.7175 24.964L92.0229 24.8139ZM92.0229 19.5085L91.7162 19.3611L91.7159 19.3618L92.0229 19.5085ZM93.5698 17.706L93.7556 17.9911L93.756 17.9908L93.5698 17.706ZM97.4114 17.3097L97.5215 16.9877L97.5215 16.9877L97.4114 17.3097ZM98.7729 18.1406L98.5402 18.3889L98.5416 18.3902L98.7729 18.1406ZM99.7509 19.6491L100.068 19.5261L100.068 19.5261L99.7509 19.6491ZM100.115 22.6023V22.9426H100.456V22.6023H100.115ZM92.5471 22.6023H92.2068V22.9426H92.5471V22.6023ZM92.5471 21.2983V20.958H92.2068V21.2983H92.5471ZM98.5811 21.2983V21.6386H98.9214V21.2983H98.5811ZM98.2488 19.8153L97.9444 19.9675L97.9456 19.9699L98.2488 19.8153ZM97.3155 18.7862L97.1346 19.0744L97.136 19.0753L97.3155 18.7862ZM94.3368 18.8565L94.5275 19.1384L94.5281 19.138L94.3368 18.8565ZM93.3333 20.0071L93.0284 19.856L93.0284 19.856L93.3333 20.0071ZM93.3652 24.2834L93.0604 24.4346L93.0619 24.4376L93.3652 24.2834ZM94.4455 25.4531L94.274 25.7471L94.2761 25.7482L94.4455 25.4531ZM97.1238 25.6832L97.2352 26.0048L97.2377 26.0039L97.1238 25.6832ZM97.9611 25.1719L98.1972 25.4169L98.1995 25.4147L97.9611 25.1719ZM98.5044 24.3153L98.5964 23.9877L98.2955 23.9033L98.1858 24.1959L98.5044 24.3153ZM99.9618 24.7244L100.287 24.8253L100.39 24.4913L100.054 24.3968L99.9618 24.7244ZM99.1884 26.0284L99.4318 26.2662L99.4331 26.2648L99.1884 26.0284ZM97.8461 26.8977L97.968 27.2154L97.9702 27.2145L97.8461 26.8977ZM96.0499 26.8643C95.1551 26.8643 94.4026 26.6672 93.7787 26.2875L93.4248 26.8688C94.173 27.3242 95.0527 27.5448 96.0499 27.5448V26.8643ZM93.7808 26.2888C93.156 25.9022 92.6723 25.3636 92.3283 24.6638L91.7175 24.964C92.115 25.7728 92.6838 26.4103 93.4227 26.8675L93.7808 26.2888ZM92.3293 24.6659C91.989 23.9616 91.8135 23.1319 91.8135 22.1676H91.1329C91.1329 23.2147 91.3238 24.1492 91.7165 24.962L92.3293 24.6659ZM91.8135 22.1676C91.8135 21.2035 91.989 20.3688 92.3299 19.6552L91.7159 19.3618C91.3239 20.1823 91.1329 21.1204 91.1329 22.1676H91.8135ZM92.3296 19.6559C92.6758 18.9358 93.1516 18.3846 93.7556 17.9911L93.384 17.4209C92.6669 17.8881 92.1115 18.5387 91.7162 19.3611L92.3296 19.6559ZM93.756 17.9908C94.3591 17.5964 95.0683 17.3943 95.8965 17.3943V16.7137C94.9519 16.7137 94.11 16.9462 93.3836 17.4212L93.756 17.9908ZM95.8965 17.3943C96.3693 17.3943 96.8371 17.4729 97.3013 17.6316L97.5215 16.9877C96.9886 16.8055 96.4464 16.7137 95.8965 16.7137V17.3943ZM97.3013 17.6316C97.7514 17.7855 98.164 18.0362 98.5402 18.3889L99.0056 17.8924C98.5637 17.478 98.0686 17.1747 97.5215 16.9877L97.3013 17.6316ZM98.5416 18.3902C98.9058 18.7279 99.2056 19.1842 99.4336 19.7722L100.068 19.5261C99.8104 18.8613 99.4582 18.3119 99.0043 17.8911L98.5416 18.3902ZM99.4336 19.7722C99.6569 20.3479 99.775 21.0746 99.775 21.9631H100.456C100.456 21.0191 100.331 20.2032 100.068 19.5261L99.4336 19.7722ZM99.775 21.9631V22.6023H100.456V21.9631H99.775ZM100.115 22.262H92.5471V22.9426H100.115V22.262ZM92.8873 22.6023V21.2983H92.2068V22.6023H92.8873ZM92.5471 21.6386H98.5811V20.958H92.5471V21.6386ZM98.9214 21.2983C98.9214 20.6979 98.801 20.1494 98.5519 19.6608L97.9456 19.9699C98.1397 20.3506 98.2409 20.7907 98.2409 21.2983H98.9214ZM98.5531 19.6632C98.3082 19.1734 97.9544 18.7825 97.495 18.4972L97.136 19.0753C97.4862 19.2928 97.7546 19.588 97.9444 19.9675L98.5531 19.6632ZM97.4964 18.498C97.0337 18.2076 96.4959 18.0688 95.8965 18.0688V18.7494C96.388 18.7494 96.7962 18.862 97.1346 19.0744L97.4964 18.498ZM95.8965 18.0688C95.2368 18.0688 94.6481 18.2335 94.1456 18.5751L94.5281 19.138C94.9033 18.883 95.3545 18.7494 95.8965 18.7494V18.0688ZM94.1462 18.5747C93.6624 18.9019 93.2887 19.3306 93.0284 19.856L93.6382 20.1582C93.8466 19.7376 94.1419 19.3992 94.5275 19.1384L94.1462 18.5747ZM93.0284 19.856C92.7701 20.3772 92.6414 20.9362 92.6414 21.5284H93.322C93.322 21.0383 93.4277 20.583 93.6382 20.1582L93.0284 19.856ZM92.6414 21.5284V22.3977H93.322V21.5284H92.6414ZM92.6414 22.3977C92.6414 23.177 92.7757 23.8604 93.0604 24.4346L93.6701 24.1322C93.4434 23.6751 93.322 23.1014 93.322 22.3977H92.6414ZM93.0619 24.4376C93.3491 25.0026 93.753 25.4431 94.274 25.7471L94.6169 25.1592C94.2175 24.9262 93.9013 24.5869 93.6686 24.1292L93.0619 24.4376ZM94.2761 25.7482C94.7951 26.0462 95.39 26.1897 96.0499 26.1897V25.5091C95.491 25.5091 95.0163 25.3885 94.6149 25.158L94.2761 25.7482ZM96.0499 26.1897C96.4778 26.1897 96.8742 26.1299 97.2352 26.0048L97.0123 25.3617C96.7341 25.4582 96.4146 25.5091 96.0499 25.5091V26.1897ZM97.2377 26.0039C97.6046 25.8735 97.926 25.6782 98.1972 25.4169L97.725 24.9268C97.5274 25.1172 97.2907 25.2628 97.0098 25.3626L97.2377 26.0039ZM98.1995 25.4147C98.473 25.1462 98.6797 24.8171 98.8231 24.4348L98.1858 24.1959C98.0735 24.4954 97.918 24.7373 97.7227 24.9291L98.1995 25.4147ZM98.4125 24.643L99.8699 25.0521L100.054 24.3968L98.5964 23.9877L98.4125 24.643ZM99.6368 24.6236C99.4993 25.0667 99.2692 25.455 98.9436 25.792L99.4331 26.2648C99.8321 25.8518 100.118 25.3708 100.287 24.8253L99.6368 24.6236ZM98.945 25.7906C98.6198 26.1234 98.2144 26.3879 97.7219 26.5809L97.9702 27.2145C98.5431 26.99 99.0325 26.6749 99.4318 26.2662L98.945 25.7906ZM97.7241 26.5801C97.2362 26.7674 96.6797 26.8643 96.0499 26.8643V27.5448C96.7496 27.5448 97.3906 27.4371 97.968 27.2154L97.7241 26.5801ZM104.634 27L104.309 27.0992L104.382 27.3403H104.634V27ZM101.643 17.1818V16.8415H101.184L101.317 17.281L101.643 17.1818ZM103.228 17.1818L103.556 17.0894L103.486 16.8415H103.228V17.1818ZM105.35 24.6989L105.023 24.7913L105.093 25.0391H105.35V24.6989ZM105.453 24.6989V25.0391H105.711L105.78 24.7903L105.453 24.6989ZM107.549 17.1818V16.8415H107.291L107.221 17.0904L107.549 17.1818ZM109.16 17.1818L109.488 17.0911L109.419 16.8415H109.16V17.1818ZM111.231 24.6733L110.903 24.764L110.972 25.0136H111.231V24.6733ZM111.333 24.6733V25.0136H111.591L111.661 24.766L111.333 24.6733ZM113.455 17.1818V16.8415H113.198L113.128 17.0891L113.455 17.1818ZM115.041 17.1818L115.366 17.281L115.5 16.8415H115.041V17.1818ZM112.049 27V27.3403H112.301L112.375 27.0992L112.049 27ZM110.566 27L110.239 27.0932L110.309 27.3403H110.566V27ZM108.419 19.4574L108.746 19.3642L108.675 19.1171H108.419V19.4574ZM108.265 19.4574V19.1171H108.008L107.938 19.3642L108.265 19.4574ZM106.117 27V27.3403H106.374L106.445 27.0932L106.117 27ZM104.96 26.9008L101.968 17.0826L101.317 17.281L104.309 27.0992L104.96 26.9008ZM101.643 17.5221H103.228V16.8415H101.643V17.5221ZM102.901 17.2743L105.023 24.7913L105.678 24.6064L103.556 17.0894L102.901 17.2743ZM105.35 25.0391H105.453V24.3586H105.35V25.0391ZM105.78 24.7903L107.877 17.2732L107.221 17.0904L105.125 24.6074L105.78 24.7903ZM107.549 17.5221H109.16V16.8415H107.549V17.5221ZM108.832 17.2725L110.903 24.764L111.559 24.5826L109.488 17.0911L108.832 17.2725ZM111.231 25.0136H111.333V24.333H111.231V25.0136ZM111.661 24.766L113.783 17.2746L113.128 17.0891L111.006 24.5806L111.661 24.766ZM113.455 17.5221H115.041V16.8415H113.455V17.5221ZM114.715 17.0826L111.724 26.9008L112.375 27.0992L115.366 17.281L114.715 17.0826ZM112.049 26.6597H110.566V27.3403H112.049V26.6597ZM110.894 26.9068L108.746 19.3642L108.091 19.5506L110.239 27.0932L110.894 26.9068ZM108.419 19.1171H108.265V19.7977H108.419V19.1171ZM107.938 19.3642L105.79 26.9068L106.445 27.0932L108.592 19.5506L107.938 19.3642ZM106.117 26.6597H104.634V27.3403H106.117V26.6597ZM123.99 19.3807L124.082 19.7081L124.426 19.6109L124.312 19.2725L123.99 19.3807ZM122.634 19.7642L122.316 19.8843L122.426 20.1767L122.727 20.0916L122.634 19.7642ZM122.257 19.1058L121.984 19.3092L121.989 19.3151L122.257 19.1058ZM121.593 18.5689L121.745 18.2645L121.745 18.2645L121.593 18.5689ZM119.01 18.7734L119.203 19.0538L119.204 19.0533L119.01 18.7734ZM118.825 20.7038L118.613 20.97L118.613 20.97L118.825 20.7038ZM120.103 21.2472L120.021 21.5773L120.022 21.5776L120.103 21.2472ZM121.561 21.6051L121.479 21.9356L121.48 21.9358L121.561 21.6051ZM123.523 22.5831L123.28 22.8213L123.281 22.8225L123.523 22.5831ZM123.683 25.7727L123.408 25.572L123.407 25.5737L123.683 25.7727ZM117.847 26.5526L118.035 26.2689L118.035 26.2689L117.847 26.5526ZM116.6 24.6477L116.518 24.3176L116.2 24.397L116.267 24.7174L116.6 24.6477ZM118.032 24.2898L118.362 24.2047L118.277 23.8777L117.95 23.9596L118.032 24.2898ZM118.806 25.4787L118.611 25.7579L118.613 25.7589L118.806 25.4787ZM121.982 25.4276L122.182 25.7035L122.182 25.7031L121.982 25.4276ZM122.251 23.4844L122.012 23.7272L122.015 23.7293L122.251 23.4844ZM121.151 22.9602L121.074 23.2915L121.074 23.2917L121.151 22.9602ZM119.515 22.5767L119.437 22.9078L119.437 22.908L119.515 22.5767ZM117.534 21.5859L117.284 21.817L117.286 21.8194L117.534 21.5859ZM117.374 18.4219L117.1 18.2195L117.099 18.2212L117.374 18.4219ZM118.659 17.4183L118.52 17.1075L118.519 17.1079L118.659 17.4183ZM122.801 17.6932L122.593 17.9629L122.594 17.9637L122.801 17.6932ZM123.897 19.0533L122.542 19.4368L122.727 20.0916L124.082 19.7081L123.897 19.0533ZM122.953 19.6441C122.854 19.3826 122.71 19.1334 122.526 18.8965L121.989 19.3151C122.137 19.5043 122.244 19.6941 122.316 19.8843L122.953 19.6441ZM122.53 18.9025C122.332 18.6362 122.066 18.4251 121.745 18.2645L121.44 18.8733C121.682 18.9939 121.859 19.1408 121.984 19.3091L122.53 18.9025ZM121.745 18.2645C121.401 18.0928 120.984 18.0177 120.512 18.0177V18.6982C120.918 18.6982 121.221 18.7637 121.44 18.8733L121.745 18.2645ZM120.512 18.0177C119.859 18.0177 119.286 18.1689 118.817 18.4936L119.204 19.0533C119.535 18.824 119.964 18.6982 120.512 18.6982V18.0177ZM118.817 18.4931C118.344 18.819 118.075 19.2644 118.075 19.8153H118.756C118.756 19.5225 118.884 19.2733 119.203 19.0538L118.817 18.4931ZM118.075 19.8153C118.075 20.285 118.252 20.6827 118.613 20.97L119.037 20.4377C118.852 20.2903 118.756 20.0957 118.756 19.8153H118.075ZM118.613 20.97C118.941 21.232 119.423 21.4278 120.021 21.5773L120.186 20.917C119.624 20.7767 119.253 20.6104 119.037 20.4377L118.613 20.97ZM120.022 21.5776L121.479 21.9356L121.642 21.2747L120.184 20.9167L120.022 21.5776ZM121.48 21.9358C122.324 22.1405 122.91 22.4444 123.28 22.8213L123.766 22.3449C123.275 21.844 122.553 21.4959 121.641 21.2744L121.48 21.9358ZM123.281 22.8225C123.641 23.1855 123.828 23.6559 123.828 24.2642H124.509C124.509 23.5004 124.266 22.85 123.765 22.3437L123.281 22.8225ZM123.828 24.2642C123.828 24.7564 123.688 25.1886 123.408 25.572L123.957 25.9735C124.325 25.4705 124.509 24.897 124.509 24.2642H123.828ZM123.407 25.5737C123.127 25.961 122.731 26.2751 122.202 26.5101L122.479 27.132C123.1 26.8556 123.599 26.4708 123.959 25.9718L123.407 25.5737ZM122.202 26.5101C121.679 26.7428 121.058 26.8643 120.333 26.8643V27.5448C121.134 27.5448 121.852 27.4106 122.479 27.132L122.202 26.5101ZM120.333 26.8643C119.381 26.8643 118.622 26.6577 118.035 26.2689L117.659 26.8363C118.384 27.3167 119.283 27.5448 120.333 27.5448V26.8643ZM118.035 26.2689C117.46 25.8881 117.091 25.3337 116.933 24.5781L116.267 24.7174C116.459 25.6322 116.921 26.3477 117.659 26.8363L118.035 26.2689ZM116.683 24.9779L118.115 24.6199L117.95 23.9596L116.518 24.3176L116.683 24.9779ZM117.703 24.3748C117.855 24.967 118.153 25.4391 118.611 25.7579L119 25.1995C118.699 24.9899 118.482 24.6693 118.362 24.2047L117.703 24.3748ZM118.613 25.7589C119.069 26.0732 119.643 26.2153 120.308 26.2153V25.5347C119.737 25.5347 119.309 25.4126 118.999 25.1985L118.613 25.7589ZM120.308 26.2153C121.056 26.2153 121.692 26.0568 122.182 25.7035L121.783 25.1516C121.446 25.3949 120.966 25.5347 120.308 25.5347V26.2153ZM122.182 25.7031C122.666 25.3526 122.949 24.8966 122.949 24.3409H122.269C122.269 24.629 122.134 24.8974 121.783 25.152L122.182 25.7031ZM122.949 24.3409C122.949 23.9106 122.794 23.5357 122.487 23.2394L122.015 23.7293C122.185 23.8933 122.269 24.0894 122.269 24.3409H122.949ZM122.489 23.2416C122.189 22.9463 121.755 22.7512 121.229 22.6288L121.074 23.2917C121.537 23.3993 121.836 23.5537 122.012 23.7271L122.489 23.2416ZM121.229 22.6289L119.593 22.2454L119.437 22.908L121.074 23.2915L121.229 22.6289ZM119.594 22.2456C118.729 22.0406 118.14 21.7329 117.781 21.3525L117.286 21.8194C117.771 22.3338 118.503 22.6866 119.437 22.9078L119.594 22.2456ZM117.783 21.3549C117.43 20.9727 117.247 20.4934 117.247 19.892H116.567C116.567 20.6458 116.802 21.2958 117.284 21.8169L117.783 21.3549ZM117.247 19.892C117.247 19.4063 117.382 18.9874 117.649 18.6225L117.099 18.2212C116.743 18.7087 116.567 19.2698 116.567 19.892H117.247ZM117.647 18.6243C117.924 18.2505 118.303 17.9507 118.798 17.7288L118.519 17.1079C117.931 17.3718 117.454 17.741 117.1 18.2195L117.647 18.6243ZM118.797 17.7292C119.293 17.5085 119.862 17.3943 120.512 17.3943V16.7137C119.782 16.7137 119.115 16.8424 118.52 17.1075L118.797 17.7292ZM120.512 17.3943C121.438 17.3943 122.118 17.5974 122.593 17.9629L123.008 17.4235C122.375 16.9367 121.53 16.7137 120.512 16.7137V17.3943ZM122.594 17.9637C123.096 18.3464 123.453 18.8511 123.667 19.4889L124.312 19.2725C124.057 18.5125 123.622 17.8922 123.007 17.4227L122.594 17.9637Z" fill="#BEBEBE"/>
</svg>
