<svg width="137" height="40" viewBox="0 0 137 40" fill="none" xmlns="http://www.w3.org/2000/svg">
<g clip-path="url(#clip0_608_584)">
<path d="M131.5 0H5.5C2.73858 0 0.5 2.23858 0.5 5V35C0.5 37.7614 2.73858 40 5.5 40H131.5C134.261 40 136.5 37.7614 136.5 35V5C136.5 2.23858 134.261 0 131.5 0Z" fill="#4285F4"/>
<mask id="mask0_608_584" style="mask-type:luminance" maskUnits="userSpaceOnUse" x="16" y="11" width="20" height="20">
<path d="M35.8208 11H16.5V30.3208H35.8208V11Z" fill="white"/>
</mask>
<g mask="url(#mask0_608_584)">
<path d="M24.0811 23.2213L23.7615 27.7166C24.2188 27.7166 24.4168 27.5202 24.6543 27.2843L26.7981 25.2355L31.2403 28.4886C32.055 28.9426 32.6289 28.7036 32.8487 27.7391L35.7645 14.0761L35.7654 14.0753C36.0238 12.871 35.3298 12.4001 34.5361 12.6955L17.3969 19.2573C16.2272 19.7113 16.2449 20.3634 17.1981 20.6589L21.5799 22.0218L31.7579 15.6532C32.2369 15.336 32.6724 15.5115 32.3142 15.8287L24.0811 23.2213Z" fill="white"/>
</g>
<path d="M53.6782 14.3359V25H52.2866V14.3359H53.6782ZM57.106 14.3359V15.4932H48.8662V14.3359H57.106ZM61.0391 25.1465C60.4873 25.1465 59.9868 25.0537 59.5376 24.8682C59.0933 24.6777 58.71 24.4116 58.3877 24.0698C58.0703 23.728 57.8262 23.3228 57.6553 22.854C57.4844 22.3853 57.3989 21.8726 57.3989 21.3159V21.0083C57.3989 20.3638 57.4941 19.79 57.6846 19.2871C57.875 18.7793 58.1338 18.3496 58.4609 17.998C58.7881 17.6465 59.1592 17.3804 59.5742 17.1997C59.9893 17.019 60.4189 16.9287 60.8633 16.9287C61.4297 16.9287 61.918 17.0264 62.3281 17.2217C62.7432 17.417 63.0825 17.6904 63.3462 18.042C63.6099 18.3887 63.8052 18.7988 63.9321 19.2725C64.0591 19.7412 64.1226 20.2539 64.1226 20.8105V21.4185H58.2046V20.3125H62.7676V20.21C62.748 19.8584 62.6748 19.5166 62.5479 19.1846C62.4258 18.8525 62.2305 18.5791 61.9619 18.3643C61.6934 18.1494 61.3271 18.042 60.8633 18.042C60.5557 18.042 60.2725 18.1079 60.0137 18.2397C59.7549 18.3667 59.5327 18.5571 59.3472 18.811C59.1616 19.0649 59.0176 19.375 58.915 19.7412C58.8125 20.1074 58.7612 20.5298 58.7612 21.0083V21.3159C58.7612 21.6919 58.8125 22.0459 58.915 22.3779C59.0225 22.7051 59.1763 22.9932 59.3765 23.2422C59.5815 23.4912 59.8281 23.6865 60.1162 23.8281C60.4092 23.9697 60.7412 24.0405 61.1123 24.0405C61.5908 24.0405 61.9961 23.9429 62.3281 23.7476C62.6602 23.5522 62.9507 23.291 63.1997 22.9639L64.02 23.6157C63.8491 23.8745 63.6318 24.1211 63.3682 24.3555C63.1045 24.5898 62.7798 24.7803 62.394 24.9268C62.0132 25.0732 61.5615 25.1465 61.0391 25.1465ZM67.1768 13.75V25H65.8145V13.75H67.1768ZM72.6406 25.1465C72.0889 25.1465 71.5884 25.0537 71.1392 24.8682C70.6948 24.6777 70.3115 24.4116 69.9893 24.0698C69.6719 23.728 69.4277 23.3228 69.2568 22.854C69.0859 22.3853 69.0005 21.8726 69.0005 21.3159V21.0083C69.0005 20.3638 69.0957 19.79 69.2861 19.2871C69.4766 18.7793 69.7354 18.3496 70.0625 17.998C70.3896 17.6465 70.7607 17.3804 71.1758 17.1997C71.5908 17.019 72.0205 16.9287 72.4648 16.9287C73.0312 16.9287 73.5195 17.0264 73.9297 17.2217C74.3447 17.417 74.6841 17.6904 74.9478 18.042C75.2114 18.3887 75.4067 18.7988 75.5337 19.2725C75.6606 19.7412 75.7241 20.2539 75.7241 20.8105V21.4185H69.8062V20.3125H74.3691V20.21C74.3496 19.8584 74.2764 19.5166 74.1494 19.1846C74.0273 18.8525 73.832 18.5791 73.5635 18.3643C73.2949 18.1494 72.9287 18.042 72.4648 18.042C72.1572 18.042 71.874 18.1079 71.6152 18.2397C71.3564 18.3667 71.1343 18.5571 70.9487 18.811C70.7632 19.0649 70.6191 19.375 70.5166 19.7412C70.4141 20.1074 70.3628 20.5298 70.3628 21.0083V21.3159C70.3628 21.6919 70.4141 22.0459 70.5166 22.3779C70.624 22.7051 70.7778 22.9932 70.978 23.2422C71.1831 23.4912 71.4297 23.6865 71.7178 23.8281C72.0107 23.9697 72.3428 24.0405 72.7139 24.0405C73.1924 24.0405 73.5977 23.9429 73.9297 23.7476C74.2617 23.5522 74.5522 23.291 74.8013 22.9639L75.6216 23.6157C75.4507 23.8745 75.2334 24.1211 74.9697 24.3555C74.7061 24.5898 74.3813 24.7803 73.9956 24.9268C73.6147 25.0732 73.1631 25.1465 72.6406 25.1465ZM82.4404 17.0752H83.6709V24.8315C83.6709 25.5298 83.5293 26.1255 83.2461 26.6187C82.9629 27.1118 82.5674 27.4854 82.0596 27.7393C81.5566 27.998 80.9756 28.1274 80.3164 28.1274C80.043 28.1274 79.7207 28.0835 79.3496 27.9956C78.9834 27.9126 78.6221 27.7686 78.2656 27.5635C77.9141 27.3633 77.6187 27.0923 77.3794 26.7505L78.0898 25.9448C78.4219 26.3452 78.7686 26.6235 79.1299 26.7798C79.4961 26.936 79.8574 27.0142 80.2139 27.0142C80.6436 27.0142 81.0146 26.9336 81.3271 26.7725C81.6396 26.6113 81.8813 26.3721 82.0522 26.0547C82.228 25.7422 82.3159 25.3564 82.3159 24.8975V18.8184L82.4404 17.0752ZM76.9839 21.1255V20.9717C76.9839 20.3662 77.0547 19.8169 77.1963 19.3237C77.3428 18.8257 77.5503 18.3984 77.8188 18.042C78.0923 17.6855 78.4219 17.4121 78.8076 17.2217C79.1934 17.0264 79.6279 16.9287 80.1113 16.9287C80.6094 16.9287 81.0439 17.0166 81.415 17.1924C81.791 17.3633 82.1084 17.6147 82.3672 17.9468C82.6309 18.2739 82.8384 18.6694 82.9897 19.1333C83.1411 19.5972 83.2461 20.1221 83.3047 20.708V21.3818C83.251 21.9629 83.146 22.4854 82.9897 22.9492C82.8384 23.4131 82.6309 23.8086 82.3672 24.1357C82.1084 24.4629 81.791 24.7144 81.415 24.8901C81.0391 25.061 80.5996 25.1465 80.0967 25.1465C79.623 25.1465 79.1934 25.0464 78.8076 24.8462C78.4268 24.646 78.0996 24.3652 77.8262 24.0039C77.5527 23.6426 77.3428 23.2178 77.1963 22.7295C77.0547 22.2363 76.9839 21.7017 76.9839 21.1255ZM78.3389 20.9717V21.1255C78.3389 21.521 78.3779 21.8921 78.4561 22.2388C78.5391 22.5854 78.6636 22.8906 78.8296 23.1543C79.0005 23.418 79.2178 23.6255 79.4814 23.7769C79.7451 23.9233 80.0601 23.9966 80.4263 23.9966C80.8755 23.9966 81.2466 23.9014 81.5396 23.7109C81.8325 23.5205 82.0645 23.269 82.2354 22.9565C82.4111 22.644 82.5479 22.3047 82.6455 21.9385V20.1733C82.5918 19.9048 82.5088 19.646 82.3965 19.397C82.2891 19.1431 82.1475 18.9185 81.9717 18.7231C81.8008 18.5229 81.5884 18.3643 81.3345 18.2471C81.0806 18.1299 80.7827 18.0713 80.4409 18.0713C80.0698 18.0713 79.75 18.1494 79.4814 18.3057C79.2178 18.457 79.0005 18.667 78.8296 18.9355C78.6636 19.1992 78.5391 19.5068 78.4561 19.8584C78.3779 20.2051 78.3389 20.5762 78.3389 20.9717ZM87.084 18.3203V25H85.729V17.0752H87.0474L87.084 18.3203ZM89.5596 17.0312L89.5522 18.291C89.4399 18.2666 89.3325 18.252 89.23 18.2471C89.1323 18.2373 89.02 18.2324 88.8931 18.2324C88.5806 18.2324 88.3047 18.2812 88.0654 18.3789C87.8262 18.4766 87.6235 18.6133 87.4575 18.7891C87.2915 18.9648 87.1597 19.1748 87.062 19.4189C86.9692 19.6582 86.9082 19.9219 86.8789 20.21L86.498 20.4297C86.498 19.9512 86.5444 19.502 86.6372 19.082C86.7349 18.6621 86.8838 18.291 87.084 17.9688C87.2842 17.6416 87.5381 17.3877 87.8457 17.207C88.1582 17.0215 88.5293 16.9287 88.959 16.9287C89.0566 16.9287 89.1689 16.9409 89.2959 16.9653C89.4229 16.9849 89.5107 17.0068 89.5596 17.0312ZM95.1919 23.645V19.5654C95.1919 19.2529 95.1284 18.9819 95.0015 18.7524C94.8794 18.5181 94.6938 18.3374 94.4448 18.2104C94.1958 18.0835 93.8882 18.02 93.522 18.02C93.1802 18.02 92.8799 18.0786 92.6211 18.1958C92.3672 18.313 92.167 18.4668 92.0205 18.6572C91.8789 18.8477 91.8081 19.0527 91.8081 19.2725H90.4531C90.4531 18.9893 90.5264 18.7085 90.6729 18.4302C90.8193 18.1519 91.0293 17.9004 91.3027 17.6758C91.5811 17.4463 91.9131 17.2656 92.2988 17.1338C92.6895 16.9971 93.124 16.9287 93.6025 16.9287C94.1787 16.9287 94.6865 17.0264 95.126 17.2217C95.5703 17.417 95.917 17.7124 96.166 18.1079C96.4199 18.4985 96.5469 18.9893 96.5469 19.5801V23.2715C96.5469 23.5352 96.5688 23.8159 96.6128 24.1138C96.6616 24.4116 96.7324 24.668 96.8252 24.8828V25H95.4116C95.3433 24.8438 95.2896 24.6362 95.2505 24.3774C95.2114 24.1138 95.1919 23.8696 95.1919 23.645ZM95.4263 20.1953L95.4409 21.1475H94.0713C93.6855 21.1475 93.3413 21.1792 93.0386 21.2427C92.7358 21.3013 92.4819 21.3916 92.2769 21.5137C92.0718 21.6357 91.9155 21.7896 91.8081 21.9751C91.7007 22.1558 91.647 22.3682 91.647 22.6123C91.647 22.8613 91.7031 23.0884 91.8154 23.2935C91.9277 23.4985 92.0962 23.6621 92.3208 23.7842C92.5503 23.9014 92.8311 23.96 93.1631 23.96C93.5781 23.96 93.9443 23.8721 94.2617 23.6963C94.5791 23.5205 94.8306 23.3057 95.0161 23.0518C95.2065 22.7979 95.3091 22.5513 95.3237 22.312L95.9023 22.9639C95.8682 23.1689 95.7754 23.396 95.624 23.645C95.4727 23.894 95.27 24.1333 95.0161 24.3628C94.7671 24.5874 94.4692 24.7754 94.1226 24.9268C93.7808 25.0732 93.395 25.1465 92.9653 25.1465C92.4282 25.1465 91.957 25.0415 91.5518 24.8315C91.1514 24.6216 90.8389 24.3408 90.6143 23.9893C90.3945 23.6328 90.2847 23.2349 90.2847 22.7954C90.2847 22.3706 90.3677 21.9971 90.5337 21.6748C90.6997 21.3477 90.939 21.0767 91.2515 20.8618C91.564 20.6421 91.9399 20.4761 92.3794 20.3638C92.8188 20.2515 93.3096 20.1953 93.8516 20.1953H95.4263ZM100.026 18.6499V25H98.6636V17.0752H99.9526L100.026 18.6499ZM99.7476 20.7373L99.1177 20.7153C99.1226 20.1733 99.1934 19.6729 99.3301 19.2139C99.4668 18.75 99.6694 18.3472 99.938 18.0054C100.207 17.6636 100.541 17.3999 100.941 17.2144C101.342 17.0239 101.806 16.9287 102.333 16.9287C102.704 16.9287 103.046 16.9824 103.358 17.0898C103.671 17.1924 103.942 17.356 104.171 17.5806C104.401 17.8052 104.579 18.0933 104.706 18.4448C104.833 18.7964 104.896 19.2212 104.896 19.7192V25H103.542V19.7852C103.542 19.3701 103.471 19.0381 103.329 18.7891C103.192 18.54 102.997 18.3594 102.743 18.2471C102.489 18.1299 102.191 18.0713 101.85 18.0713C101.449 18.0713 101.115 18.1421 100.846 18.2837C100.578 18.4253 100.363 18.6206 100.202 18.8696C100.041 19.1187 99.9233 19.4043 99.8501 19.7266C99.7817 20.0439 99.7476 20.3809 99.7476 20.7373ZM104.882 19.9902L103.974 20.2686C103.979 19.834 104.049 19.4165 104.186 19.0161C104.328 18.6157 104.53 18.2593 104.794 17.9468C105.062 17.6343 105.392 17.3877 105.783 17.207C106.173 17.0215 106.62 16.9287 107.123 16.9287C107.548 16.9287 107.924 16.9849 108.251 17.0972C108.583 17.2095 108.861 17.3828 109.086 17.6172C109.315 17.8467 109.489 18.1421 109.606 18.5034C109.723 18.8647 109.782 19.2944 109.782 19.7925V25H108.419V19.7778C108.419 19.3335 108.349 18.9893 108.207 18.7451C108.07 18.4961 107.875 18.3228 107.621 18.2251C107.372 18.1226 107.074 18.0713 106.728 18.0713C106.43 18.0713 106.166 18.1226 105.937 18.2251C105.707 18.3276 105.514 18.4692 105.358 18.6499C105.202 18.8257 105.082 19.0283 104.999 19.2578C104.921 19.4873 104.882 19.7314 104.882 19.9902Z" fill="white"/>
</g>
<defs>
<clipPath id="clip0_608_584">
<rect width="137" height="40" fill="white"/>
</clipPath>
</defs>
</svg>
